<svg width="17" height="16" fill="none" xmlns="http://www.w3.org/2000/svg"><g clip-path="url(#a)"><path fill-rule="evenodd" clip-rule="evenodd" d="M8.5 16a8 8 0 1 0 0-16 8 8 0 0 0 0 16ZM5.638 4.195a.667.667 0 0 0-.943.943L7.557 8l-2.862 2.862a.667.667 0 1 0 .943.943L8.5 8.943l2.862 2.862a.667.667 0 1 0 .943-.943L9.443 8l2.862-2.862a.667.667 0 1 0-.943-.943L8.5 7.057 5.638 4.195Z" fill="#BEBEBE"/></g><defs><clipPath id="a"><path fill="#fff" transform="translate(.5)" d="M0 0h16v16H0z"/></clipPath></defs></svg>