<svg width="380" height="48" viewBox="0 0 380 48" fill="none" xmlns="http://www.w3.org/2000/svg">
<g clip-path="url(#clip0_105_2504)">
<path d="M156.34 19.9399C152.051 12.5999 140.786 9.25995 132.13 9.25995C129.462 9.25995 126.996 9.54992 124.775 10.1099C116.635 12.1899 109.685 14.05 103.554 15.7C87.1382 20.11 77.2329 22.7799 68.9996 22.7799C62.1427 22.7799 56.2653 20.9699 48.0404 16.3199C39.4524 11.4599 33.1444 6.83993 28.0862 3.11993C20.14 -2.71007 14.896 -6.55005 7.71822 -6.55005C5.37067 -6.55005 2.83733 -6.12005 0 -5.24005V-4.52005C2.84578 -5.41005 5.37911 -5.84006 7.71822 -5.84006C14.7356 -5.84006 19.9204 -2.03005 27.7738 3.72995C32.8489 7.44995 39.1653 12.0899 47.7871 16.9599C56.1049 21.6599 62.0498 23.4899 68.9996 23.4899C77.3004 23.4899 87.2311 20.8199 103.681 16.3999C109.812 14.7499 116.753 12.8899 124.893 10.8099C127.064 10.2599 129.496 9.97995 132.122 9.97995C140.634 9.97995 151.688 13.2299 155.851 20.3599C157.683 23.5099 157.987 27.0799 156.746 30.9899C154.263 38.7899 142.652 45.6699 132.4 51.7499C126.211 55.4199 120.359 58.8899 117.352 62.1099C108.562 71.5199 110.673 84.2799 114.236 98.0299H114.853C111.315 84.4199 109.178 71.8099 117.741 62.6299C120.688 59.4699 126.506 56.0299 132.662 52.3799C143.007 46.2499 154.728 39.2899 157.295 31.2399C158.612 27.1099 158.291 23.3099 156.34 19.9699V19.9399Z" fill="#CDCDCD"/>
<path d="M105.876 42.95C107.244 41.93 108.824 41.8 110.183 41.8C110.825 41.8 111.475 41.83 112.159 41.87C112.843 41.91 113.544 41.95 114.245 41.95C115.816 41.95 117.868 41.77 119.725 40.41C124.522 36.89 126.118 32.8 125.56 30.5C125.197 28.98 123.948 28.1 122.14 28.1C120.528 28.1 118.484 28.78 116.221 30.08C114.777 30.91 113.476 32.38 112.218 33.82C110.698 35.55 109.128 37.34 107.32 37.92C106.763 38.1 106.214 38.19 105.64 38.19C104.5 38.19 103.478 37.84 102.397 37.48C101.325 37.12 100.227 36.74 99.0111 36.74C98.5889 36.74 98.1667 36.79 97.7444 36.88C95.5996 37.35 94.1387 38.96 92.72 40.52C91.5378 41.82 90.3218 43.16 88.7173 43.82C86.9018 44.57 84.436 44.94 81.1849 44.94C76.9627 44.94 72.2844 44.31 68.5182 43.81C67.4373 43.66 66.4324 43.53 65.5373 43.42C57.7262 42.49 49.5942 39.59 40.6938 34.56C31.2698 29.23 24.5311 24.29 19.1098 20.31C16.1542 18.14 13.1227 17.04 10.1164 17.04C6.29111 17.04 2.89644 18.76 0 21.41V21.78C2.87956 19.09 6.28267 17.34 10.1164 17.34C13.0804 17.34 16.0613 18.42 18.9831 20.57C24.4044 24.55 31.1516 29.5 40.5924 34.83C49.5182 39.88 57.6756 42.79 65.512 43.72C66.4071 43.83 67.412 43.96 68.4929 44.11C72.2591 44.62 76.9542 45.24 81.1849 45.24C84.4613 45.24 86.9524 44.87 88.7933 44.11C90.4484 43.43 91.6898 42.06 92.8889 40.74C94.3413 39.14 95.7178 37.63 97.7867 37.17C98.192 37.08 98.5889 37.04 99.0027 37.04C100.185 37.04 101.274 37.41 102.321 37.77C103.368 38.13 104.458 38.5 105.64 38.5C106.231 38.5 106.805 38.41 107.388 38.22C109.254 37.61 110.85 35.8 112.396 34.05C113.637 32.64 114.929 31.17 116.339 30.37C118.568 29.1 120.578 28.42 122.149 28.42C123.863 28.42 124.986 29.19 125.324 30.6C125.856 32.8 124.285 36.74 119.599 40.18C117.792 41.51 115.79 41.68 114.245 41.68C113.552 41.68 112.852 41.64 112.176 41.6C111.517 41.56 110.842 41.53 110.192 41.53C108.79 41.53 107.168 41.67 105.75 42.73C104.188 43.89 102.997 46.83 101.848 49.68C101.156 51.4 100.497 53.02 99.8049 54.14C94.0289 63.46 93.6742 73.5 94.924 85.7C95.3547 89.89 96.0724 94.02 96.9338 98.05H97.1956C96.3258 94.01 95.5996 89.87 95.1689 85.67C93.9276 73.54 94.2738 63.57 100.008 54.33C100.717 53.18 101.376 51.55 102.076 49.82C103.208 47.02 104.382 44.12 105.885 43L105.876 42.95Z" fill="#CDCDCD"/>
<path d="M85.3305 51.63C81.5727 50.49 77.5363 50.41 73.6349 50.34C71.3803 50.3 69.0496 50.26 66.8287 50C56.1971 48.8 47.0856 45.89 38.1598 40.84C28.4487 35.35 21.5496 30.29 16.01 26.22C14.0003 24.75 12.0243 24 10.1243 24C6.59448 24 2.93804 26.74 0.0078125 31.31V31.81C2.92115 27.12 6.58603 24.3 10.1243 24.3C11.9736 24.3 13.9074 25.03 15.8749 26.48C21.4229 30.55 28.322 35.61 38.05 41.11C47.0096 46.18 56.1465 49.09 66.8034 50.3C69.0412 50.55 71.3718 50.59 73.6349 50.64C77.5278 50.71 81.5474 50.79 85.2798 51.92C91.0811 53.69 90.8785 58.71 90.0509 64.6C89.0714 71.63 88.2523 78.59 89.0629 86.5C89.4683 90.43 90.1016 94.27 90.8616 98H91.1234C90.3549 94.25 89.7216 90.4 89.3163 86.46C88.514 78.59 89.3163 71.65 90.3043 64.65C91.1149 58.83 91.3514 53.46 85.3474 51.63H85.3305Z" fill="#CDCDCD"/>
<path d="M80.9569 61.11C77.8831 57.74 73.2893 57.46 69.236 57.21C68.1973 57.15 67.2093 57.09 66.2635 56.98C54.9227 55.7 45.1778 52.58 35.6102 47.17C27.3769 42.51 20.9929 38.26 15.5293 33.8C14.0347 32.58 12.5062 31.96 10.9778 31.96C7.51556 31.96 4.256 35.18 2.26311 40.56C1.51156 42.59 0.768444 44.59 0 46.57V47.29C0.844444 45.12 1.66356 42.92 2.49111 40.68C4.44178 35.41 7.61689 32.26 10.9778 32.26C12.4471 32.26 13.9333 32.86 15.3858 34.05C20.8578 38.52 27.2502 42.78 35.5004 47.45C45.1018 52.88 54.872 56.01 66.2467 57.29C67.2009 57.4 68.1889 57.46 69.236 57.52C73.2471 57.77 77.7902 58.05 80.7964 61.34C84.284 65.16 83.7942 72.41 83.3551 78.8C83.144 81.94 82.9413 84.92 83.1862 87.34C83.5578 90.95 84.2924 94.52 85.0609 98H85.3227C84.5458 94.5 83.8111 90.92 83.4396 87.3C83.1947 84.9 83.3973 81.94 83.6084 78.81C84.0476 72.35 84.5458 65.02 80.9653 61.11H80.9569Z" fill="#CDCDCD"/>
<path d="M78.0095 75.63C78.4148 72.69 78.8286 69.65 77.1904 67.34C75.2313 64.58 72.0393 64.39 69.2188 64.22L68.9317 64.2C67.9268 64.14 66.7953 64.07 65.7059 63.95C53.6557 62.59 43.2775 59.27 33.0597 53.49C29.8424 51.67 26.6842 49.6 23.6273 47.59C21.9468 46.49 20.2157 45.35 18.4846 44.26L18.3664 44.19C16.3397 42.92 14.2455 41.6 12.0922 41.6C10.9522 41.6 9.93038 41.97 8.95927 42.72C5.52238 45.37 3.87571 50.51 2.27971 55.48C1.55349 57.74 0.852602 59.87 0.0166016 61.74V62.37C0.962379 60.38 1.72238 58.05 2.51616 55.59C4.09527 50.66 5.73349 45.57 9.10282 42.97C10.0317 42.25 11.0197 41.9 12.1006 41.9C14.1948 41.9 16.2637 43.2 18.2566 44.46L18.3748 44.53C20.0975 45.61 21.837 46.75 23.5175 47.85C26.5744 49.86 29.741 51.93 32.9668 53.76C43.2099 59.56 53.6135 62.89 65.6975 64.25C66.7953 64.37 67.9353 64.44 68.9402 64.5L69.2273 64.52C71.997 64.69 75.1299 64.88 77.013 67.54C78.5753 69.75 78.1699 72.72 77.773 75.59C77.6464 76.51 77.5282 77.39 77.469 78.25C77.241 81.6 77.0046 85.06 77.3255 88.19C77.6717 91.6 78.2882 94.85 78.9637 98.01H79.2255C78.5415 94.84 77.925 91.57 77.5788 88.15C77.2579 85.05 77.4944 81.61 77.7224 78.26C77.7815 77.42 77.8997 76.55 78.0264 75.64L78.0095 75.63Z" fill="#CDCDCD"/>
<path d="M368.761 56.7501C365.045 63.6001 360.654 70.1701 357.251 75.1301C357.065 75.4001 356.863 75.6901 356.651 75.9801C355.131 78.0901 353.24 80.71 354.574 83.36C355.866 85.91 359.556 86.43 362.25 86.8C362.731 86.87 363.196 86.9301 363.576 87.0001C369.377 88.0401 374.874 89.9701 380 92.7201V92.3901C374.874 89.6601 369.394 87.7401 363.61 86.7001C363.221 86.6301 362.757 86.5701 362.275 86.5001C359.632 86.1301 356.01 85.6301 354.785 83.2001C353.544 80.7401 355.368 78.2101 356.829 76.1701C357.04 75.8701 357.251 75.5901 357.437 75.3101C360.848 70.3401 365.248 63.7601 368.963 56.9001C372.265 50.8201 374.596 44.5201 377.07 37.8501C377.906 35.6001 378.894 33.5801 379.992 31.8101V31.3101C378.801 33.1701 377.729 35.3201 376.834 37.7301C374.368 44.3901 372.037 50.6801 368.744 56.7401L368.761 56.7501Z" fill="#CDCDCD"/>
<path d="M370.855 64.9301C368.119 68.8201 365.02 73.2201 365.172 77.4401C365.281 80.6901 367.941 81.2401 370.289 81.7201C370.855 81.8401 371.387 81.9501 371.885 82.0901C374.283 82.7701 377.129 83.9501 380 85.3501V85.0301C377.146 83.6401 374.325 82.48 371.944 81.8C371.437 81.65 370.897 81.5401 370.331 81.4301C367.967 80.9401 365.526 80.4401 365.425 77.4301C365.281 73.3201 368.347 68.9701 371.057 65.1201C372.172 63.5401 373.228 62.0401 373.954 60.6901C376.36 56.2501 378.244 51.8201 380.008 47.2801V46.5601C378.184 51.3001 376.242 55.9201 373.743 60.5301C373.016 61.8601 371.969 63.3501 370.863 64.9301H370.855Z" fill="#CDCDCD"/>
<path d="M164.456 53.4601C162.319 57.2801 159.659 62.0201 160.58 65.3001C160.951 66.6401 161.897 67.6401 163.383 68.2701C163.662 68.3901 163.975 68.4501 164.304 68.4501C167.563 68.4501 172.731 62.4801 177.291 57.2201C180.188 53.8701 182.932 50.7101 184.579 49.8201C192.449 45.5901 203.309 43.5801 212.885 41.8001C216.668 41.1001 220.24 40.4401 223.533 39.6701C231.049 37.9301 238.303 37.0401 245.1 37.0401C267.343 37.0401 286.014 46.5201 300.606 65.2101C302.244 67.3101 304.617 68.3701 307.682 68.3701C317.207 68.3701 333.547 57.3901 345.049 37.0401C351.931 24.8701 361.929 -0.019928 351.534 -29.9099C347.371 -41.8899 341.181 -47.4699 332.053 -47.4699C325.111 -47.4699 317.191 -44.4499 308.02 -40.9499C296.738 -36.6399 283.945 -31.7599 270.18 -31.7599C259.464 -31.7599 249.627 -34.6899 240.101 -40.6999C210.715 -59.2599 209.862 -93.1099 212.395 -120.53C213.383 -131.19 211.779 -139.63 207.767 -144.94C204.93 -148.69 201.071 -150.67 196.595 -150.67C188.117 -150.67 177.536 -142.88 173.719 -127.98C170.131 -113.96 178.643 -101.21 188.497 -86.4499C199.619 -69.8099 212.218 -50.9499 209.769 -25.7799C208.553 -13.2999 204.711 -1.32993 199.475 6.25008C195.506 12.0001 192.002 12.5101 188.286 13.0501C185.449 13.4601 182.519 13.8901 179.082 16.4701C176.455 18.4401 175.636 21.8001 174.767 25.3501C174.167 27.8001 173.542 30.3301 172.284 32.4101C171.591 33.5501 170.384 33.8001 169.117 34.0601C167.437 34.4101 165.528 34.8001 164.523 37.3701C163.823 39.1601 164.751 41.2701 165.647 43.3101C166.398 45.0101 167.167 46.7701 166.939 48.2301C166.753 49.4001 165.706 51.2801 164.49 53.4501L164.456 53.4601ZM166.052 43.0601C165.174 41.0601 164.338 39.1601 164.937 37.6301C165.841 35.3301 167.538 34.9801 169.176 34.6401C170.494 34.3701 171.845 34.0901 172.655 32.7601C173.964 30.6001 174.598 28.0201 175.214 25.5301C176.059 22.0801 176.861 18.8301 179.327 16.9801C182.671 14.4701 185.55 14.0501 188.328 13.6401C192.145 13.0801 195.743 12.5601 199.838 6.63008C205.124 -1.02992 209.017 -13.1199 210.242 -25.6999C212.707 -51.1099 200.041 -70.0699 188.869 -86.7999C179.099 -101.43 170.654 -114.07 174.175 -127.8C177.925 -142.43 188.286 -150.08 196.587 -150.08C200.919 -150.08 204.66 -148.17 207.396 -144.55C211.314 -139.37 212.876 -131.09 211.905 -120.59C209.355 -92.9899 210.225 -58.9099 239.865 -40.1899C249.466 -34.1299 259.38 -31.1799 270.18 -31.1799C284.021 -31.1799 296.848 -36.0799 308.163 -40.3999C317.292 -43.8899 325.179 -46.8999 332.044 -46.8999C341.071 -46.8999 346.94 -41.5899 351.078 -29.6999C361.389 -0.049942 351.467 24.6301 344.643 36.7101C333.64 56.1601 317.207 67.7901 307.674 67.7901C304.76 67.7901 302.497 66.7901 300.96 64.8201C286.275 46.0101 267.478 36.4701 245.1 36.4701C238.277 36.4701 230.99 37.3601 223.44 39.1101C220.155 39.8701 216.583 40.5301 212.809 41.2301C203.199 43.0101 192.314 45.0301 184.376 49.2901C182.654 50.2201 180.011 53.2701 176.954 56.8001C172.461 61.9901 167.369 67.8701 164.304 67.8701C164.034 67.8701 163.78 67.8201 163.552 67.7301C162.201 67.1501 161.382 66.3001 161.053 65.1201C160.208 62.1101 162.792 57.4901 164.87 53.7801C166.119 51.5501 167.192 49.6301 167.395 48.3501C167.656 46.6901 166.846 44.8501 166.06 43.0601H166.052Z" fill="#CDCDCD"/>
<path d="M112.032 55.11C115.841 51.03 121.87 47.4601 128.854 43.3201C133.726 40.4301 140.279 33.33 139.882 27.5201C139.671 24.35 137.509 21.9701 133.473 20.4701C131.885 19.8801 130.146 19.5901 128.161 19.5901C122.993 19.5901 117.167 21.6201 112.032 23.4201C109.685 24.2401 107.472 25.0101 105.446 25.5601C88.4556 30.1301 78.1955 32.8901 68.9995 32.8901C60.8591 32.8901 53.7236 30.7301 44.3671 25.4401C35.3653 20.3501 28.8378 15.5601 23.5938 11.7201C15.8756 6.06006 12.2782 3.56006 7.71822 3.56006C5.59022 3.56006 3.04844 4.12005 0 5.27005V5.79007C3.05689 4.63007 5.60711 4.05005 7.71822 4.05005C12.1684 4.05005 15.732 6.53008 23.3827 12.1401C28.6351 15.9901 35.1627 20.7801 44.1898 25.8901C53.6053 31.2201 60.8 33.3901 69.008 33.3901C78.2462 33.3901 88.5231 30.63 105.547 26.05C107.582 25.5 109.803 24.7301 112.159 23.9101C117.268 22.1301 123.061 20.11 128.17 20.11C130.112 20.11 131.809 20.3901 133.355 20.9701C137.214 22.4101 139.266 24.6401 139.468 27.5901C139.848 33.1801 133.439 40.0701 128.668 42.9001C121.659 47.0601 115.604 50.6501 111.754 54.7701C100.134 67.21 102.009 83.4501 105.53 98.0301H105.969C102.456 83.5501 100.565 67.4201 112.032 55.1401V55.11Z" fill="#CDCDCD"/>
<path d="M363.627 30.87C361.397 36.89 359.286 42.58 356.618 47.51C341.055 76.18 323.701 81.01 305.326 86.12C303.924 86.51 302.455 86.88 301.036 87.24C294.914 88.78 288.589 90.38 283.43 94.34C281.817 95.58 280.584 96.8 279.723 98.01H280.272C281.091 96.95 282.214 95.87 283.658 94.76C288.75 90.85 295.041 89.26 301.121 87.73C302.548 87.37 304.017 87 305.419 86.61C323.87 81.47 341.308 76.62 356.964 47.78C359.658 42.82 361.769 37.12 364.015 31.06C367.57 21.46 371.607 10.59 377.172 6.95001C378.16 6.51001 379.097 6.12 380 5.78V5.26001C379.046 5.62001 378.05 6.03 377.003 6.5C371.277 10.23 367.216 21.19 363.627 30.87Z" fill="#CDCDCD"/>
<path d="M275.837 87.15C285.793 81.89 294.795 79.39 303.51 76.96C321.007 72.09 336.114 67.88 349.937 42.42C352.268 38.13 354.252 32.77 356.355 27.09C360.746 15.23 365.289 2.97 373.725 -2.09C375.997 -3.13 378.066 -3.94001 380 -4.54001V-5.26001C377.99 -4.64001 375.828 -3.79999 373.455 -2.70999C364.842 2.46001 360.256 14.84 355.815 26.81C353.72 32.46 351.744 37.8 349.439 42.04C335.734 67.27 320.736 71.45 303.366 76.28C294.635 78.71 285.599 81.23 275.592 86.51C269.082 89.95 264.733 93.93 262.926 98H263.584C265.4 94.19 269.605 90.44 275.829 87.15H275.837Z" fill="#CDCDCD"/>
<path d="M277.788 63.23C276.226 57.37 269.369 52.99 257.429 50.22C249.558 48.4 241.519 47.47 233.531 47.47C221.785 47.47 209.895 49.46 198.182 53.38C196.595 53.91 195.007 54.49 193.454 55.1C173.246 63.04 161.584 76.28 156.349 98H156.965C162.175 76.64 173.71 63.6 193.639 55.77C195.185 55.16 196.772 54.59 198.343 54.06C209.996 50.16 221.835 48.18 233.522 48.18C241.477 48.18 249.474 49.1 257.31 50.92C269.031 53.64 275.728 57.85 277.222 63.45C278.371 67.74 276.471 72.97 271.582 79.01C266.523 85.25 261.414 91.56 256.821 98.01H257.598C262.098 91.73 267.072 85.58 272.004 79.5C277.054 73.27 278.996 67.8 277.78 63.25L277.788 63.23Z" fill="#CDCDCD"/>
<path d="M230.938 7.60004C231.285 7.83004 231.656 7.94003 232.045 7.94003C233.548 7.94003 235.017 6.20004 236.326 4.67004C237.077 3.78004 237.795 2.94002 238.378 2.61002C239.138 2.18002 239.847 1.97003 240.548 1.97003C241.891 1.97003 243.031 2.73002 244.348 3.61002C244.821 3.92002 245.311 4.25003 245.834 4.56003C247.093 5.30003 248.325 5.65002 249.601 5.65002C250.876 5.65002 252.066 5.30003 253.325 4.94003C254.633 4.56003 255.985 4.17004 257.564 4.13004H257.766C260.975 4.13004 263.914 6.10003 266.76 8.00003C269.589 9.89003 272.51 11.85 275.694 11.85C277.222 11.85 278.692 11.41 280.178 10.52C281.369 9.80002 282.281 8.92004 283.083 8.13004C284.392 6.85003 285.523 5.75003 287.432 5.75003C287.989 5.75003 288.589 5.84003 289.256 6.03003C294.677 7.55003 297.067 13.45 299.372 19.16C300.453 21.84 301.568 24.6 302.978 26.81C305.807 31.24 309.455 33.68 313.255 33.68H313.449C317.257 33.6 320.914 31.11 323.751 26.68C327.593 20.67 334.577 1.08002 331.681 -8.66998C330.828 -11.55 329.181 -13.37 326.8 -14.08C325.955 -14.33 325.178 -14.46 324.41 -14.46C321.944 -14.46 320.095 -13.15 317.958 -11.64C317.477 -11.3 316.979 -10.95 316.455 -10.6C312.123 -7.69998 307.833 -7.09996 303.282 -6.45996C301.5 -6.20996 299.651 -5.94996 297.785 -5.54996C295.707 -5.09996 293.833 -4.23997 292.025 -3.40997C289.644 -2.31997 287.398 -1.28998 284.924 -1.28998C283.252 -1.28998 281.622 -1.76997 279.933 -2.74997C276.454 -4.77997 272.662 -6.64996 268.474 -6.64996C267.089 -6.64996 265.721 -6.45997 264.311 -6.05997C263.669 -5.87997 263.036 -5.68997 262.419 -5.49997C259.996 -4.76997 257.707 -4.07996 255.385 -4.07996C253.502 -4.07996 251.729 -4.53997 249.972 -5.49997L249.229 -5.90997C246.037 -7.65997 242.735 -9.45996 239.366 -9.45996C237.5 -9.45996 235.785 -8.91998 234.105 -7.81998C231.994 -6.42998 229.165 -0.589958 229.165 3.48004C229.165 5.40004 229.79 6.82002 230.955 7.58002L230.938 7.60004ZM234.291 -7.36996C235.904 -8.42996 237.559 -8.94998 239.349 -8.94998C242.634 -8.94998 245.885 -7.16997 249.035 -5.43997L249.778 -5.02997C251.585 -4.04997 253.417 -3.56998 255.368 -3.56998C257.741 -3.56998 260.055 -4.26998 262.504 -5.00998C263.12 -5.19998 263.745 -5.38998 264.387 -5.56998C265.763 -5.95998 267.089 -6.14996 268.449 -6.14996C272.553 -6.14996 276.293 -4.29996 279.722 -2.29996C281.47 -1.27996 283.159 -0.789978 284.898 -0.789978C287.449 -0.789978 289.737 -1.83998 292.152 -2.94998C293.942 -3.76998 295.792 -4.61998 297.835 -5.06998C299.693 -5.46998 301.525 -5.72998 303.307 -5.97998C307.893 -6.61998 312.233 -7.22996 316.633 -10.18C317.156 -10.53 317.663 -10.89 318.144 -11.23C320.23 -12.7 322.029 -13.98 324.376 -13.98C325.102 -13.98 325.854 -13.86 326.656 -13.62C328.894 -12.95 330.439 -11.24 331.241 -8.52997C334.087 1.06003 327.171 20.41 323.371 26.35C320.618 30.65 317.08 33.07 313.398 33.15H313.213C309.548 33.15 306.018 30.78 303.273 26.48C301.889 24.31 300.833 21.69 299.71 18.92C297.362 13.1 294.93 7.09002 289.306 5.52002C288.605 5.32002 287.981 5.23004 287.389 5.23004C285.329 5.23004 284.147 6.39003 282.77 7.72003C281.943 8.52003 281.098 9.35002 279.941 10.05C278.514 10.91 277.113 11.33 275.652 11.33C272.578 11.33 269.833 9.49004 266.929 7.54004C264.041 5.60004 261.051 3.60004 257.733 3.60004H257.521C255.892 3.64004 254.524 4.05002 253.189 4.43002C251.957 4.79002 250.791 5.13004 249.567 5.13004C248.342 5.13004 247.202 4.80003 245.986 4.09003C245.471 3.79003 244.99 3.47003 244.525 3.16003C243.208 2.28004 241.967 1.46002 240.523 1.46002C239.754 1.46002 238.986 1.69003 238.167 2.15002C237.517 2.52003 236.782 3.38002 236.005 4.30002C234.764 5.76002 233.353 7.42004 232.028 7.42004C231.715 7.42004 231.42 7.33005 231.133 7.14005C230.094 6.46004 229.562 5.23003 229.562 3.47003C229.562 -0.659968 232.501 -6.22996 234.282 -7.39996L234.291 -7.36996Z" fill="#CDCDCD"/>
<path d="M176.472 42.95C177.012 43.12 177.984 43.2 179.216 43.2C181.784 43.2 191.317 42.75 206.188 36.93C218.618 32.07 233.16 29.39 247.118 29.39C270.104 29.39 285.372 33.47 305.039 55.76C306.432 57.34 308.307 58.14 310.595 58.14C319.141 58.14 332.069 47.12 340.024 33.05C346.239 22.06 355.275 -0.38002 345.944 -27.21C341.924 -38.76 336.883 -40.35 332.036 -40.35C326.04 -40.35 318.541 -37.49 309.852 -34.17C298.148 -29.7 284.873 -24.64 270.163 -24.64C258.434 -24.64 247.667 -27.84 237.247 -34.42C204.305 -55.22 203.857 -93.98 206.391 -121.32C207.176 -129.79 206.061 -136.49 203.266 -140.18C201.586 -142.4 199.331 -143.53 196.578 -143.53C190.321 -143.53 182.434 -137.48 179.47 -125.91C176.793 -115.46 184.401 -104.07 193.209 -90.88C204.465 -74.03 218.475 -53.06 215.739 -24.96C214.953 -16.91 213.146 -9.26003 210.351 -2.22003C205.901 8.98997 200.024 18.5 192.871 26.05C188.151 31.03 183.413 34.52 179.96 37.06C176.81 39.38 174.91 40.77 175.045 41.84C175.104 42.32 175.56 42.68 176.472 42.95ZM180.095 37.32C183.557 34.77 188.303 31.28 193.04 26.28C200.218 18.7 206.12 9.15999 210.588 -2.08002C213.4 -9.15002 215.215 -16.84 216 -24.91C218.745 -53.13 204.702 -74.16 193.412 -91.05C184.646 -104.17 177.08 -115.5 179.715 -125.8C182.645 -137.23 190.414 -143.21 196.578 -143.21C199.255 -143.21 201.442 -142.12 203.08 -139.96C205.833 -136.33 206.914 -129.71 206.146 -121.33C203.612 -93.9 204.06 -55.02 237.137 -34.13C247.6 -27.52 258.408 -24.31 270.172 -24.31C284.924 -24.31 298.216 -29.38 309.945 -33.86C318.609 -37.17 326.082 -40.02 332.044 -40.02C336.807 -40.02 341.755 -38.45 345.715 -27.07C354.996 -0.370041 346.003 21.97 339.821 32.91C332.044 46.67 318.93 57.86 310.604 57.86C308.374 57.86 306.567 57.09 305.216 55.56C295.682 44.76 286.816 37.89 277.299 33.94C269.108 30.55 260.08 29.1 247.11 29.1C233.117 29.1 218.551 31.78 206.095 36.65C191.267 42.45 181.767 42.9 179.208 42.9C178 42.9 177.046 42.81 176.531 42.65C175.754 42.41 175.34 42.12 175.29 41.78C175.18 40.91 177.24 39.4 180.086 37.3L180.095 37.32Z" fill="#CDCDCD"/>
<path d="M298.798 8.29992C299.719 8.73992 300.259 9.09992 300.943 9.54992C301.213 9.72992 301.5 9.91994 301.847 10.1399C305.326 12.3499 308.239 14.5999 310.283 16.6399C311.44 17.7999 312.385 18.3599 313.171 18.3599C314.328 18.3599 315.003 17.1999 315.552 16.0999C317.596 11.9799 318.313 8.79993 319.158 3.21993C319.259 2.53993 319.276 1.57992 318.795 0.899923C318.187 0.0399228 316.979 -0.11007 315.206 0.46993C309.852 2.22993 306.246 3.02993 301.678 4.05993C300.876 4.23993 300.056 4.41992 299.187 4.61992C298.308 4.81992 297.641 5.55993 297.574 6.40993C297.54 6.78993 297.599 7.72992 298.807 8.29992H298.798ZM299.271 5.18993C300.132 4.98993 300.96 4.80993 301.754 4.62993C306.331 3.59993 309.953 2.78993 315.324 1.02993C315.991 0.809928 316.565 0.699941 317.047 0.699941C317.68 0.699941 318.144 0.889918 318.406 1.26992C318.769 1.77992 318.744 2.55992 318.66 3.11992C317.832 8.61992 317.123 11.7599 315.113 15.8099C314.522 16.9899 313.964 17.7799 313.154 17.7799C312.487 17.7799 311.642 17.2599 310.578 16.1999C308.509 14.1299 305.562 11.8599 302.058 9.62993C301.72 9.40993 301.424 9.21994 301.163 9.03994C300.462 8.57994 299.913 8.20994 298.959 7.75994C298.325 7.45994 297.988 6.97992 298.03 6.45992C298.08 5.86992 298.596 5.32992 299.254 5.17992L299.271 5.18993Z" fill="#CDCDCD"/>
<path d="M221.245 18.83C222.021 18.83 222.976 18.75 224.166 18.59C224.681 18.52 236.934 16.9 250.082 16.9C255.208 16.9 259.777 17.15 263.661 17.65C283.075 20.12 299.879 31.09 307.918 40.86C309.396 42.66 311.161 43.57 313.171 43.57C317.672 43.57 323.211 38.93 328.379 30.85C337.432 16.69 340.168 -10.42 335.684 -21.09C334.493 -23.92 332.829 -25.42 330.87 -25.42C330.71 -25.42 330.541 -25.42 330.372 -25.39C326.825 -24.96 321.894 -23.25 315.662 -21.08C303.983 -17.02 287.989 -11.47 270.645 -11.14C255.825 -10.85 238.885 -17.8 233.126 -21.12C231.243 -22.21 230.027 -22.69 229.182 -22.69C227.46 -22.69 227.392 -20.76 227.265 -17.55C227.164 -15 227.037 -11.51 225.982 -7.53003C224.073 -0.29003 221.912 5.19996 220.333 9.20996C218.585 13.66 217.521 16.34 218.272 17.74C218.686 18.51 219.606 18.85 221.245 18.85V18.83ZM220.561 9.31998C222.14 5.29998 224.31 -0.200022 226.218 -7.46002C227.274 -11.48 227.409 -15 227.51 -17.56C227.629 -20.69 227.696 -22.41 229.174 -22.41C229.968 -22.41 231.184 -21.92 233.008 -20.87C238.674 -17.6 255.115 -10.85 269.775 -10.85C270.062 -10.85 270.357 -10.85 270.645 -10.85C288.023 -11.18 304.034 -16.74 315.729 -20.81C321.953 -22.97 326.868 -24.68 330.397 -25.11C332.492 -25.36 334.197 -23.97 335.447 -20.98C339.897 -10.38 337.17 16.56 328.168 30.64C323.051 38.65 317.579 43.24 313.162 43.24C311.229 43.24 309.523 42.36 308.096 40.62C300.023 30.81 283.168 19.81 263.686 17.33C259.793 16.83 255.217 16.58 250.082 16.58C236.926 16.58 224.656 18.21 224.141 18.27C222.959 18.43 222.013 18.51 221.245 18.51C219.716 18.51 218.838 18.2 218.483 17.54C217.808 16.29 218.846 13.66 220.561 9.29996V9.31998Z" fill="#CDCDCD"/>
<path d="M202.346 30.29C203.131 30.29 204.136 30.05 205.183 29.62C217.006 24.76 230.719 22.4 247.11 22.4C267.52 22.4 287.745 24.61 310.722 51.37C311.381 52.14 312.25 52.53 313.298 52.53C319.724 52.53 331.597 37.95 335.118 29.16C335.439 28.36 335.785 27.51 336.157 26.62C340.641 15.74 348.139 -2.47999 340.472 -24.52C337.406 -33.33 334.552 -33.33 332.027 -33.33C326.961 -33.33 319.867 -30.62 311.659 -27.49C299.542 -22.86 285.802 -17.62 270.163 -17.62C256.779 -17.62 245.953 -20.53 235.043 -27.06C233.354 -28.07 231.733 -29.18 230.297 -30.15C227.426 -32.1 225.163 -33.64 223.702 -33.64C222.562 -33.64 222.005 -32.7 221.979 -30.76C221.979 -30.45 222.013 -29.96 222.072 -29.27C223.634 -10.29 217.428 7.42999 203.63 23.4C201.223 26.19 200.201 28.19 200.598 29.35C200.809 29.97 201.417 30.29 202.346 30.29ZM203.807 23.61C212.682 13.34 218.5 2.19999 221.093 -9.51001C223.178 -18.92 222.579 -26.2 222.326 -29.3C222.266 -29.98 222.233 -30.47 222.233 -30.76C222.258 -33.07 223.086 -33.34 223.702 -33.34C225.095 -33.34 227.451 -31.74 230.17 -29.89C231.606 -28.91 233.236 -27.81 234.933 -26.79C245.877 -20.24 256.737 -17.31 270.163 -17.31C285.845 -17.31 299.601 -22.56 311.744 -27.2C319.935 -30.33 327.011 -33.03 332.036 -33.03C334.476 -33.03 337.246 -33.03 340.244 -24.41C347.861 -2.5 340.396 15.64 335.929 26.48C335.557 27.38 335.211 28.22 334.89 29.03C331.394 37.76 319.639 52.23 313.298 52.23C312.318 52.23 311.507 51.87 310.899 51.16C300.226 38.73 289.172 30.59 277.122 26.27C266.38 22.42 256.407 22.1 247.11 22.1C230.694 22.1 216.955 24.47 205.099 29.34C204.077 29.76 203.098 29.99 202.346 29.99C201.772 29.99 201.046 29.86 200.834 29.24C200.632 28.66 200.75 27.15 203.807 23.62V23.61Z" fill="#CDCDCD"/>
<path d="M351.509 92.59C351.027 92.59 350.208 92.65 349.178 92.73C347.438 92.86 345.057 93.04 342.693 93.04C336.824 93.04 333.75 91.9 333.556 89.64C333.26 86.25 340.066 81.21 344.567 77.88C346.358 76.55 347.903 75.41 348.621 74.67C354.228 68.85 359.404 61.6 364.006 53.12C367.055 47.5 369.301 41.45 371.674 35.04C373.464 30.22 376.302 25.21 380.009 21.75V21.38C376.192 24.88 373.27 29.99 371.446 34.92C369.073 41.32 366.835 47.36 363.795 52.96C359.202 61.42 354.042 68.64 348.46 74.44C347.759 75.17 346.222 76.31 344.441 77.63C339.61 81.2 333.007 86.1 333.311 89.67C333.522 92.14 336.596 93.34 342.701 93.34C345.074 93.34 347.464 93.16 349.203 93.02C350.234 92.94 351.044 92.88 351.517 92.88C360.401 92.88 368.305 94.57 375.449 97.99H376.133C368.803 94.36 360.679 92.58 351.517 92.58L351.509 92.59Z" fill="#CDCDCD"/>
<path d="M170.24 11.71C182.813 10.0099 197.785 -7.68004 201.796 -21.2C208.763 -44.67 196.375 -63.57 184.392 -81.85C172.832 -99.49 161.905 -116.15 167.216 -136.44C171.844 -154.11 186.791 -163.65 198.503 -163.65C204.82 -163.65 210.275 -161 213.88 -156.18C218.162 -150.46 219.842 -141.77 218.744 -131.05C214.97 -94.22 213.847 -53.93 248.52 -42.05C252.497 -40.69 256.424 -40 260.198 -40C274.799 -40 284.113 -49.9 289.357 -58.21C299.414 -74.14 302.91 -97.97 298.046 -117.5C293.925 -134.06 285.81 -150.13 273.253 -166.61C254.583 -191.11 229.148 -212.17 195.505 -231.01L194.053 -231.83C179.9 -239.76 165.266 -247.96 149.855 -252.48C148.943 -252.75 147.929 -253.07 146.848 -253.41C142.086 -254.91 136.166 -256.77 131.083 -256.77C129.048 -256.77 127.283 -256.46 125.847 -255.85C123.652 -254.92 122.419 -253.14 121.22 -251.42C120.324 -250.14 119.404 -248.81 118.087 -247.86C117.234 -247.24 115.562 -246.48 113.805 -245.67C110.96 -244.37 108.004 -243.02 107.075 -241.72C105.276 -239.22 105.775 -237.72 106.248 -236.26C106.594 -235.22 106.915 -234.23 106.492 -232.76L106.163 -231.6C104.457 -225.66 101.64 -222.017 97.7102 -220.67C96.5702 -220.28 95.1516 -219.79 93.4711 -219.16C88.6156 -217.33 86.6227 -214.51 84.6974 -211.78C83.2196 -209.68 81.8178 -207.7 79.1747 -206.1C79.1071 -206.1 79.0227 -206.1 78.9382 -206.1C75.8982 -206.1 52.8449 -204.3 51.0716 -197.59C50.5987 -195.78 51.6289 -193.82 54.1538 -191.75C57.312 -189.16 59.7018 -188.86 61.2302 -188.86C61.9734 -188.86 62.6489 -188.94 63.2991 -189.01C63.8565 -189.07 64.38 -189.13 64.8782 -189.13C66.736 -189.13 68.6107 -188.51 71.1778 -181C71.8111 -179.15 72.3009 -177.64 72.7062 -176.38C74.6991 -170.2 74.7667 -170.12 79.8249 -167.56C81.0831 -166.93 82.6454 -166.14 84.6298 -165.05C91.1489 -161.49 92.4831 -157.45 94.172 -152.33C95.0671 -149.63 96.0805 -146.56 97.9974 -143.11C100.049 -139.42 102.456 -136.45 104.787 -133.58C108.916 -128.49 112.817 -123.68 114.059 -115.65C116.212 -101.74 109.836 -88.46 102.625 -76.18C99.1289 -70.22 91.9427 -63.29 84.3342 -55.95C71.4142 -43.49 56.7716 -29.36 56.7209 -16.28C56.6871 -8.81003 58.3085 -3.08002 61.5342 0.759979C65.0471 4.93997 70.384 6.96997 77.8573 6.96997C88.6916 6.96997 102 2.63995 113.746 -1.17004C122.993 -4.17004 130.981 -6.77002 136.082 -6.77002C137.239 -6.77002 138.218 -6.63002 138.987 -6.36002C143.91 -4.63002 147.811 -0.930038 151.594 2.64996C156.602 7.39996 161.339 11.88 168.103 11.88C168.796 11.88 169.505 11.83 170.214 11.74L170.24 11.71ZM139.181 -7.06003C138.336 -7.36003 137.332 -7.50003 136.107 -7.50003C130.922 -7.50003 122.9 -4.89003 113.611 -1.88004C101.899 1.91995 88.624 6.23996 77.8742 6.23996C70.5698 6.23996 65.368 4.27997 61.9734 0.23996C58.8658 -3.46004 57.3036 -9.02002 57.3289 -16.3C57.3796 -29.05 71.904 -43.07 84.7227 -55.43C92.3649 -62.8 99.5765 -69.76 103.123 -75.8C110.402 -88.21 116.845 -101.64 114.65 -115.8C113.375 -124.04 109.414 -128.92 105.226 -134.09C102.912 -136.94 100.522 -139.89 98.504 -143.52C96.6209 -146.91 95.616 -149.93 94.7378 -152.61C92.9982 -157.88 91.6218 -162.03 84.8916 -165.71C82.8987 -166.8 81.328 -167.59 80.0698 -168.23C76.8159 -169.877 74.5471 -172.687 73.2636 -176.66C72.8582 -177.92 72.3685 -179.44 71.7351 -181.29C69.2778 -188.46 67.3609 -189.86 64.8867 -189.86C64.3631 -189.86 63.8227 -189.8 63.2485 -189.73C62.6151 -189.66 61.9565 -189.58 61.2387 -189.58C59.668 -189.58 57.4894 -189.89 54.5 -192.34C52.2116 -194.21 51.2574 -195.91 51.6458 -197.39C53.1827 -203.22 74.6738 -205.41 78.9467 -205.41C79.048 -205.41 79.1156 -205.41 79.1578 -205.41L79.2254 -205.73L79.352 -205.42C82.1556 -207.1 83.684 -209.25 85.1534 -211.34C87.1125 -214.11 88.9618 -216.73 93.6569 -218.5C95.3289 -219.13 96.7391 -219.61 97.8791 -220C104.018 -222.1 104.094 -222.21 106.729 -231.38L107.058 -232.54C107.548 -234.25 107.151 -235.45 106.805 -236.52C106.349 -237.9 105.96 -239.09 107.531 -241.27C108.367 -242.43 111.373 -243.81 114.025 -245.02C115.815 -245.84 117.504 -246.61 118.408 -247.26C119.809 -248.27 120.764 -249.64 121.684 -250.97C122.883 -252.69 124.015 -254.32 126.05 -255.18C127.426 -255.76 129.124 -256.06 131.091 -256.06C136.099 -256.06 141.976 -254.21 146.705 -252.72C147.786 -252.38 148.799 -252.06 149.72 -251.79C165.072 -247.29 179.68 -239.1 193.808 -231.19L195.26 -230.37C228.827 -211.58 254.203 -190.57 272.823 -166.14C285.32 -149.74 293.393 -133.76 297.489 -117.3C302.302 -97.97 298.848 -74.39 288.892 -58.63C283.724 -50.45 274.554 -40.7 260.207 -40.7C256.491 -40.7 252.624 -41.38 248.697 -42.73C214.472 -54.45 215.595 -94.42 219.344 -130.97C220.467 -141.89 218.736 -150.77 214.336 -156.64C210.621 -161.61 205.005 -164.34 198.52 -164.34C186.596 -164.34 171.38 -154.63 166.668 -136.63C161.263 -116 172.79 -98.41 183.945 -81.4C195.826 -63.27 208.121 -44.52 201.256 -21.41C197.296 -8.08003 182.552 9.36996 170.189 11.04C169.496 11.13 168.812 11.18 168.145 11.18C161.584 11.18 156.931 6.76999 152 2.09998C148.183 -1.52002 144.231 -5.26004 139.198 -7.04004L139.181 -7.06003Z" fill="#CDCDCD"/>
</g>
<defs>
<clipPath id="clip0_105_2504">
<rect width="380" height="48" fill="white"/>
</clipPath>
</defs>
</svg>
