<svg width="230" height="30" fill="none" xmlns="http://www.w3.org/2000/svg"><path d="M203.554 29.208c-.765-.308-.726.491-.726-14.64V.866c0-.545.277-.867 1.072-.867h6.906c7.709 0 8.574.051 10.569.626 4.605 1.328 7.325 4.548 8.07 9.556.173 1.162.21 2.925.21 9.874v8.257c0 .774-.729.962-1.263.962l-2.636.04-3.245.04c-.398 0-.832-.377-.832-.9l-.053-8.278c-.059-9.132-.049-9.025-.794-10.513-.488-.976-1.584-1.896-2.647-2.224-.786-.242-1.258-.273-4.125-.273h-3.238l-.004 10.716c-.005 11.33.016 10.959-.631 11.302-.351.187-6.176.207-6.633.023ZM139.825 28.35V14.91c0-13.517.003-13.645.275-13.936.151-.162.416-.33.588-.373.172-.043 3.752-.054 7.956-.024 8.362.06 8.386.062 10.741.92a9.205 9.205 0 0 1 3.639 2.406c1.639 1.737 2.302 3.564 2.314 6.374.008 1.994-.222 3.103-.956 4.597-.692 1.41-2.397 3.115-3.861 3.86-.578.294-1.027.595-.997.67.029.074 1.345 2.021 2.923 4.327 2.543 3.713 2.862 4.238 2.793 4.597-.043.223-.234.543-.424.71-.34.299-.41.304-3.851.304-1.927 0-3.593-.034-3.703-.076-.109-.042-1.495-2.02-3.08-4.394l-2.882-4.319h-3.616v7.886c-.15.558-.614.903-1.037.903h-5.826c-.489 0-.849-.448-.996-.993Zm15.284-14.182c.878-.322 1.567-.855 1.934-1.493.281-.49.328-.748.327-1.79-.001-1.007-.054-1.317-.311-1.798-.328-.616-1.202-1.267-2.054-1.531-.263-.082-2.018-.18-3.9-.217l-3.421-.07v7.226l3.421-.056c2.68-.044 3.547-.103 4.004-.27ZM119.638 28.476V7.437h-8.007l-.332-.332c-.332-.33-.333-.34-.328-3.076.004-2.872.031-3.012.63-3.33.218-.117 3.353-.158 11.964-.158 12.785 0 12.096-.115 12.518.614.065.112.084 1.434.084 2.919 0 2.686-.001 2.7-.332 3.031-.198.239-.296.332-.587.332h-7.617v10.349c0 11.054 0 11.06-.657 11.41-.173.093-1.44.146-3.472.146h-2.996c-.327 0-.868-.432-.868-.866ZM90.645 29.304c-.656-.331-.676-.502-.678-5.76l-.002-4.92-5.013-8.232c-3.14-5.158-5.013-8.362-5.013-8.58 0-.202.165-.51.396-.74.276-.352.413-.396.83-.396h3.07c2.881 0 3.553.036 3.79.201.158.111 1.557 2.454 3.107 5.206 1.551 2.753 2.86 5.005 2.907 5.005.049 0 1.324-2.175 2.835-4.834 1.51-2.659 2.903-5.001 3.093-5.206l.346-.372h7.007l.333.332c.676.675.714.6-4.681 9.396l-5.013 8.172v10.111l-.396.395-.396.396-3.093-.002c-2.208-.002-3.189-.05-3.429-.172ZM62.175 29.275a1.336 1.336 0 0 1-.51-.57c-.116-.278-.148-3.911-.121-13.876l.036-13.095c.091-.496.413-.983.881-1.052.42-.05 1.248-.006 3.066-.006h2.984c.545 0 .877.553.995.993v20.912h13.366l.295.314c.283.3.295.424.295 3.098v2.785l-.417.35-.417.35-10.05-.006c-8.416-.004-10.107-.036-10.403-.197ZM0 28.484V1.508C0 1.216.343.66.919.66l6.992.056c7.545.06 7.71.07 9.64.708 3.4 1.123 5.725 3.55 6.528 6.809.303 1.231.297 3.962-.012 5.222-.928 3.791-3.92 6.42-8.418 7.396-.935.203-1.97.283-4.437.34l-3.218.075v3.329c-.001 1.864-.063 3.549-.141 3.83-.077.275-.298.625-.492.777-.331.26-.534.277-3.46.277H1.199c-.625 0-1.199-.491-1.199-.994ZM14.227 14.65c1.487-.679 2.164-1.745 2.166-3.411 0-.55-.07-1.238-.158-1.53-.227-.756-1.059-1.637-1.902-2.014-.667-.298-.915-.324-3.595-.368l-2.88-.048v7.754l2.88-.053c2.552-.046 2.948-.083 3.49-.33ZM181.095 29.674c-3.475-.653-6.267-2.142-8.565-4.568-1.973-2.082-3.13-4.304-3.716-7.133-.409-1.977-.321-4.998.2-6.87 1.464-5.263 5.569-9.232 11.012-10.65 2.688-.7 6.525-.57 9.237.311 4.221 1.373 7.818 4.718 9.357 8.701 1.224 3.168 1.283 7.318.148 10.421-1.746 4.775-5.592 8.216-10.668 9.546-2.522.397-4.396.714-7.005.242Zm4.391-6.96c2.695-.418 5.038-2.622 5.785-5.443.299-1.129.296-3.405-.005-4.544-.846-3.194-3.325-5.333-6.528-5.633-3.707-.346-6.901 1.91-7.85 5.548-.247.946-.278 3.248-.057 4.287.083.395.328 1.109.544 1.587 1.418 3.139 4.534 4.751 8.111 4.198ZM44.586 22.636c2.392-.701 4.183-2.559 4.948-5.132.296-.997.337-3.456.075-4.523-.687-2.794-2.925-5.063-5.538-5.616-4.133-.874-7.884 1.403-8.908 5.408-.272 1.06-.27 3.423.003 4.468.364 1.396.992 2.492 2.021 3.53.995 1.002 1.666 1.422 2.918 1.826.993.32 3.448.342 4.48.04Zm-5.169 7.173c-5.666-1.024-10.252-4.91-11.883-10.067-.572-1.808-.64-2.318-.628-4.733.01-2.1.05-2.514.363-3.678 1.313-4.893 4.983-8.769 9.827-10.38C39.143.27 40.433.098 42.95.17c1.817.052 2.479.128 3.533.407 3 .791 4.941 1.906 7.104 4.078 2.237 2.248 3.373 4.345 4.002 7.39.402 1.951.325 4.852-.18 6.766-1.512 5.73-6.26 9.962-12.343 11.002-1.47.251-4.247.249-5.649-.004Z" fill="#ED1C24"/></svg>